<svg width="310" height="154" viewBox="0 0 310 154" fill="none" xmlns="http://www.w3.org/2000/svg">
<path d="M93.184 121.977V128.155C93.184 128.404 93.241 128.597 93.3548 128.726C93.4686 128.855 93.6701 128.962 93.9612 129.041V129.43H90.5V129.041C90.7912 128.96 90.9926 128.855 91.1064 128.726C91.2203 128.597 91.2772 128.406 91.2772 128.155V114.126C91.2772 113.883 91.2203 113.697 91.1064 113.568C90.9926 113.439 90.7912 113.332 90.5 113.253V112.864H99.2198C100.441 112.864 101.394 112.93 102.075 113.059C102.755 113.188 103.362 113.422 103.896 113.763C104.454 114.102 104.903 114.568 105.245 115.159C105.626 115.822 105.816 116.565 105.816 117.392C105.816 118.525 105.468 119.497 104.772 120.304C104.238 120.927 103.559 121.362 102.738 121.61C101.915 121.855 100.744 121.979 99.222 121.979H93.184V121.977ZM93.184 120.4H99.4015C100.325 120.4 101.013 120.363 101.459 120.291C101.91 120.218 102.311 120.076 102.67 119.866C103.495 119.381 103.909 118.567 103.909 117.427C103.909 116.279 103.495 115.461 102.67 114.975C102.313 114.763 101.913 114.623 101.468 114.551C101.024 114.478 100.334 114.441 99.4037 114.441H93.1862V120.4H93.184Z" fill="url(#paint0_radial_61_903)"/>
<path d="M118.643 124.779H109.779L108.318 127.923C108.183 128.22 108.113 128.432 108.113 128.553C108.113 128.796 108.353 128.957 108.831 129.038V129.428H105.133V129.038C105.466 128.982 105.718 128.861 105.891 128.675C106.066 128.489 106.293 128.085 106.578 127.461L112.651 114.369C112.798 114.054 112.87 113.84 112.87 113.726C112.87 113.514 112.671 113.356 112.274 113.253V112.864H116.307V113.253C115.911 113.382 115.712 113.551 115.712 113.763C115.712 113.853 115.784 114.054 115.931 114.369L121.747 126.989C122.176 127.918 122.459 128.465 122.597 128.627C122.735 128.789 123.035 128.925 123.494 129.041V129.43H119.56V129.041C120.031 128.975 120.267 128.798 120.267 128.507C120.267 128.378 120.178 128.126 120 127.754L118.643 124.779ZM117.945 123.202L114.212 115.019L110.484 123.202H117.945Z" fill="url(#paint1_radial_61_903)"/>
<path d="M127.906 121.977V127.999C127.906 128.33 127.958 128.568 128.063 128.708C128.168 128.848 128.374 128.96 128.683 129.041V129.43H125.222V129.041C125.53 128.96 125.736 128.85 125.841 128.712C125.946 128.575 125.999 128.336 125.999 127.997V114.297C125.999 113.958 125.946 113.717 125.841 113.575C125.736 113.433 125.53 113.326 125.222 113.251V112.862H134.318C135.564 112.862 136.551 112.93 137.274 113.063C138 113.197 138.629 113.431 139.163 113.759C139.715 114.1 140.159 114.566 140.498 115.157C140.888 115.828 141.081 116.585 141.081 117.432C141.081 118.694 140.663 119.724 139.822 120.523C138.986 121.321 137.832 121.774 136.367 121.89L140.582 128.43C140.831 128.835 141.197 129.036 141.674 129.036V129.426H137.836V129.036C138.232 128.971 138.432 128.859 138.432 128.697C138.432 128.616 138.292 128.356 138.007 127.912L134.241 121.975H127.906V121.977ZM127.906 120.4H134.622C135.537 120.4 136.227 120.361 136.691 120.284C137.158 120.21 137.569 120.068 137.926 119.866C138.76 119.381 139.176 118.567 139.176 117.427C139.176 116.279 138.747 115.461 137.889 114.975C137.508 114.763 137.085 114.623 136.619 114.551C136.155 114.478 135.43 114.441 134.452 114.441H127.906V120.4Z" fill="url(#paint2_radial_61_903)"/>
<path d="M147.02 114.441V120.096H154.21C154.549 120.096 154.79 120.043 154.932 119.938C155.075 119.833 155.182 119.628 155.256 119.319H155.646V122.45H155.256C155.184 122.141 155.077 121.936 154.932 121.831C154.792 121.726 154.551 121.673 154.21 121.673H147.02V127.995C147.02 128.334 147.071 128.573 147.173 128.71C147.272 128.848 147.482 128.958 147.797 129.038V129.428H144.336V129.038C144.645 128.958 144.851 128.848 144.956 128.71C145.061 128.573 145.113 128.334 145.113 127.995V114.295C145.113 113.956 145.061 113.715 144.956 113.573C144.851 113.431 144.645 113.323 144.336 113.249V112.86H157.82C158.159 112.86 158.398 112.809 158.545 112.704C158.685 112.599 158.792 112.394 158.864 112.083H159.254V115.213H158.864C158.792 114.901 158.685 114.695 158.545 114.592C158.398 114.487 158.161 114.437 157.82 114.437H147.02V114.441Z" fill="url(#paint3_radial_61_903)"/>
<path d="M164.425 114.295V123.456C164.425 124.541 164.478 125.302 164.596 125.742C164.707 126.184 164.942 126.567 165.301 126.89C166.165 127.667 167.783 128.056 170.143 128.056C172.718 128.056 174.408 127.599 175.209 126.685C175.476 126.376 175.652 126.011 175.743 125.589C175.831 125.162 175.875 124.453 175.875 123.458V114.297C175.875 113.964 175.822 113.728 175.719 113.586C175.612 113.446 175.409 113.334 175.098 113.253V112.864H178.39V113.253C178.079 113.326 177.876 113.433 177.769 113.577C177.666 113.717 177.613 113.958 177.613 114.299V123.837C177.613 125.009 177.497 125.904 177.274 126.518C176.851 127.619 176.059 128.428 174.898 128.944C173.738 129.461 172.129 129.721 170.069 129.721C166.993 129.721 164.891 129.126 163.753 127.938C163.291 127.459 162.971 126.917 162.792 126.304C162.608 125.696 162.516 124.871 162.516 123.837V114.299C162.516 113.96 162.463 113.719 162.361 113.577C162.253 113.435 162.05 113.328 161.739 113.253V112.864H165.202V113.253C164.891 113.334 164.688 113.446 164.58 113.586C164.48 113.728 164.425 113.962 164.425 114.295Z" fill="url(#paint4_radial_61_903)"/>
<path d="M191.182 129.428L184.207 115.5V127.997C184.207 128.327 184.26 128.566 184.367 128.706C184.47 128.848 184.678 128.96 184.984 129.041V129.43H181.705V129.041C182.016 128.96 182.219 128.85 182.327 128.712C182.429 128.575 182.482 128.336 182.482 127.997V114.297C182.482 113.958 182.429 113.717 182.327 113.575C182.219 113.433 182.016 113.326 181.705 113.251V112.862H185.994V113.251C185.6 113.389 185.4 113.56 185.4 113.761C185.4 113.857 185.532 114.168 185.799 114.695L191.322 125.613L196.87 114.597C197.065 114.207 197.161 113.934 197.161 113.772C197.161 113.56 196.962 113.389 196.568 113.249V112.86H200.905V113.249C200.594 113.33 200.39 113.439 200.283 113.577C200.18 113.715 200.127 113.953 200.127 114.292V127.993C200.127 128.325 200.18 128.562 200.283 128.702C200.39 128.844 200.594 128.955 200.905 129.036V129.426H197.441V129.036C197.756 128.955 197.967 128.846 198.067 128.708C198.17 128.57 198.218 128.332 198.218 127.993V115.5L191.182 129.428Z" fill="url(#paint5_radial_61_903)"/>
<path d="M220.096 113.892L218.357 117.025L218.018 116.843C218.158 116.48 218.226 116.253 218.226 116.163C218.226 115.92 217.924 115.658 217.328 115.373C215.702 114.614 213.977 114.233 212.155 114.233C210.653 114.233 209.353 114.513 208.245 115.069C207.711 115.343 207.288 115.699 206.973 116.134C206.662 116.572 206.507 117.031 206.507 117.515C206.507 117.919 206.627 118.3 206.87 118.661C207.113 119.02 207.433 119.287 207.831 119.466C208.269 119.667 208.784 119.805 209.377 119.884C209.975 119.958 210.947 120.017 212.286 120.059C214.152 120.116 215.483 120.201 216.284 120.321C217.085 120.437 217.747 120.641 218.261 120.934C219.64 121.704 220.325 122.87 220.325 124.44C220.325 125.939 219.704 127.164 218.456 128.118C217.072 129.185 215.168 129.719 212.737 129.719C211.334 129.719 210.115 129.579 209.07 129.294C208.026 129.01 206.778 128.489 205.329 127.728C204.922 127.542 204.683 127.448 204.611 127.448C204.491 127.448 204.3 127.595 204.042 127.886L203.711 127.68L205.533 124.635L205.872 124.83C205.721 125.153 205.644 125.37 205.644 125.486C205.644 125.746 206.159 126.147 207.199 126.687C208.127 127.173 209.025 127.523 209.885 127.735C210.75 127.951 211.687 128.058 212.698 128.058C214.747 128.058 216.302 127.61 217.361 126.711C218.066 126.112 218.421 125.401 218.421 124.576C218.421 123.491 217.819 122.743 216.608 122.332C216.218 122.194 215.816 122.106 215.397 122.071C214.984 122.032 213.799 121.979 211.846 121.907C210.456 121.85 209.364 121.745 208.571 121.592C207.785 121.439 207.08 121.188 206.467 120.84C205.889 120.516 205.439 120.063 205.097 119.481C204.762 118.899 204.596 118.263 204.596 117.576C204.596 116.403 205.033 115.397 205.907 114.555C206.553 113.94 207.446 113.459 208.589 113.105C209.729 112.755 210.984 112.578 212.343 112.578C213.451 112.578 214.48 112.687 215.432 112.908C216.385 113.129 217.458 113.507 218.657 114.043C218.924 114.157 219.089 114.216 219.152 114.216C219.299 114.216 219.498 114.054 219.75 113.726L220.096 113.892Z" fill="url(#paint6_radial_61_903)"/>
<path d="M27.263 76.2038V28.5666C27.263 27.7419 27.0791 27.1097 26.7113 26.67C26.3413 26.2303 25.6867 25.8716 24.7388 25.5981V24.2812H42.1566V25.6003C41.2108 25.8475 40.554 26.1997 40.184 26.6503C39.8141 27.1053 39.6323 27.7441 39.6323 28.5688V76.2059C39.6323 77.0569 39.8228 77.7109 40.2059 78.1616C40.5869 78.6166 41.2371 78.9666 42.1566 79.2138V80.5328H24.7388V79.2138C25.6845 78.9403 26.3413 78.5816 26.7113 78.1419C27.0791 77.7022 27.263 77.0547 27.263 76.2038Z" fill="url(#paint7_radial_61_903)"/>
<path d="M67.4011 71.1988H102.136C102.95 71.1988 103.57 71.015 103.99 70.6475C104.411 70.2778 104.754 69.6238 105.015 68.6766H106.278V83.055H105.015C104.752 82.11 104.408 81.4538 103.99 81.0841C103.57 80.7144 102.95 80.5328 102.136 80.5328H52.5076V79.2138C53.4533 78.9403 54.1101 78.5816 54.4801 78.1419C54.8501 77.7022 55.0318 77.0569 55.0318 76.206V28.6081C55.0318 27.7572 54.8479 27.1097 54.4801 26.6722C54.1123 26.2347 53.4555 25.8738 52.5076 25.6003V24.2812H69.9254V25.5981C68.9796 25.8453 68.3228 26.1953 67.9528 26.6459C67.5829 27.1009 67.4011 27.7528 67.4011 28.6016V71.1988Z" fill="url(#paint8_radial_61_903)"/>
<path d="M146.976 80.5634L126.222 41.7266V76.1994C126.222 77.0503 126.406 77.7 126.774 78.1375C127.144 78.5772 127.798 78.9359 128.746 79.2094V80.5306H112.338V79.2115C113.284 78.9381 113.94 78.5793 114.31 78.1397C114.68 77.7 114.862 77.0547 114.862 76.2037V28.5666C114.862 27.7419 114.678 27.1097 114.31 26.67C113.94 26.2303 113.286 25.8716 112.338 25.5981V24.2812H134.049V25.6025C132.755 25.9328 132.111 26.6897 132.111 27.8709C132.111 28.4222 132.304 29.0522 132.689 29.7697L148.045 58.8809L163.606 30.2641C164.296 28.9997 164.639 28.0766 164.639 27.4991C164.639 26.3703 163.95 25.7403 162.577 25.6003V24.2812H183.782V25.6003C182.837 25.8737 182.178 26.2325 181.81 26.6722C181.438 27.1119 181.258 27.7441 181.258 28.5687V76.2059C181.258 77.0569 181.44 77.7044 181.81 78.1419C182.175 78.5815 182.834 78.9403 183.782 79.2137V80.5328H166.365V79.2115C167.284 78.9643 167.932 78.6144 168.313 78.1572C168.698 77.7065 168.889 77.0503 168.889 76.1994V41.7266L146.976 80.5634Z" fill="url(#paint9_radial_61_903)"/>
<path d="M196.653 76.2038V28.5666C196.653 27.7419 196.471 27.1097 196.101 26.67C195.736 26.2303 195.077 25.8716 194.129 25.5981V24.2812H211.547V25.6003C210.601 25.8475 209.946 26.1997 209.574 26.6503C209.209 27.1053 209.023 27.7441 209.023 28.5688V76.2059C209.023 77.0569 209.213 77.7109 209.598 78.1616C209.979 78.6166 210.629 78.9666 211.547 79.2138V80.5328H194.129V79.2138C195.075 78.9403 195.734 78.5816 196.101 78.1419C196.474 77.7022 196.653 77.0547 196.653 76.2038Z" fill="url(#paint10_radial_61_903)"/>
<path d="M235.784 41.9563V76.1994C235.784 77.0503 235.97 77.7 236.336 78.1375C236.708 78.5772 237.36 78.9359 238.308 79.2094V80.5306H221.646V79.2116C222.592 78.9381 223.246 78.5794 223.618 78.1397C223.984 77.7 224.17 77.0547 224.17 76.2038V28.5666C224.17 27.7419 223.984 27.1097 223.618 26.67C223.246 26.2303 222.594 25.8716 221.646 25.5981V24.2812H240.832V25.6025C239.644 25.9066 239.05 26.5366 239.05 27.5013C239.05 28.1619 239.44 28.8903 240.209 29.6888L271.377 61.9938V28.5731C271.377 27.7484 271.195 27.1141 270.83 26.6744C270.458 26.2347 269.799 25.8759 268.853 25.6025V24.2812H285.261V25.6003C284.316 25.8737 283.657 26.2325 283.289 26.6722C282.921 27.1119 282.737 27.7441 282.737 28.5688V76.2059C282.737 77.0569 282.923 77.7044 283.289 78.1419C283.655 78.5816 284.313 78.9403 285.261 79.2138V80.5328H267.59V79.2116C268.743 78.9644 269.319 78.3716 269.319 77.4375C269.319 76.8863 268.645 75.9259 267.298 74.55L235.784 41.9563Z" fill="url(#paint11_radial_61_903)"/>
<defs>
<radialGradient id="paint0_radial_61_903" cx="0" cy="0" r="1" gradientUnits="userSpaceOnUse" gradientTransform="translate(48.1794 118.384) scale(210.569 210.399)">
<stop stop-color="#462523"/>
<stop offset="0.2" stop-color="#CA9A50"/>
<stop offset="0.45" stop-color="#F5E27B"/>
<stop offset="0.5" stop-color="#F6F2C0"/>
<stop offset="0.55" stop-color="#F5E27B"/>
<stop offset="0.8" stop-color="#CA9A50"/>
<stop offset="1" stop-color="#462523"/>
</radialGradient>
<radialGradient id="paint1_radial_61_903" cx="0" cy="0" r="1" gradientUnits="userSpaceOnUse" gradientTransform="translate(48.1793 118.384) scale(210.569 210.399)">
<stop stop-color="#462523"/>
<stop offset="0.2" stop-color="#CA9A50"/>
<stop offset="0.45" stop-color="#F5E27B"/>
<stop offset="0.5" stop-color="#F6F2C0"/>
<stop offset="0.55" stop-color="#F5E27B"/>
<stop offset="0.8" stop-color="#CA9A50"/>
<stop offset="1" stop-color="#462523"/>
</radialGradient>
<radialGradient id="paint2_radial_61_903" cx="0" cy="0" r="1" gradientUnits="userSpaceOnUse" gradientTransform="translate(48.1793 118.384) scale(210.569 210.399)">
<stop stop-color="#462523"/>
<stop offset="0.2" stop-color="#CA9A50"/>
<stop offset="0.45" stop-color="#F5E27B"/>
<stop offset="0.5" stop-color="#F6F2C0"/>
<stop offset="0.55" stop-color="#F5E27B"/>
<stop offset="0.8" stop-color="#CA9A50"/>
<stop offset="1" stop-color="#462523"/>
</radialGradient>
<radialGradient id="paint3_radial_61_903" cx="0" cy="0" r="1" gradientUnits="userSpaceOnUse" gradientTransform="translate(48.1788 118.384) scale(210.57 210.399)">
<stop stop-color="#462523"/>
<stop offset="0.2" stop-color="#CA9A50"/>
<stop offset="0.45" stop-color="#F5E27B"/>
<stop offset="0.5" stop-color="#F6F2C0"/>
<stop offset="0.55" stop-color="#F5E27B"/>
<stop offset="0.8" stop-color="#CA9A50"/>
<stop offset="1" stop-color="#462523"/>
</radialGradient>
<radialGradient id="paint4_radial_61_903" cx="0" cy="0" r="1" gradientUnits="userSpaceOnUse" gradientTransform="translate(48.1794 118.384) scale(210.569 210.399)">
<stop stop-color="#462523"/>
<stop offset="0.2" stop-color="#CA9A50"/>
<stop offset="0.45" stop-color="#F5E27B"/>
<stop offset="0.5" stop-color="#F6F2C0"/>
<stop offset="0.55" stop-color="#F5E27B"/>
<stop offset="0.8" stop-color="#CA9A50"/>
<stop offset="1" stop-color="#462523"/>
</radialGradient>
<radialGradient id="paint5_radial_61_903" cx="0" cy="0" r="1" gradientUnits="userSpaceOnUse" gradientTransform="translate(48.1797 118.384) scale(210.569 210.399)">
<stop stop-color="#462523"/>
<stop offset="0.2" stop-color="#CA9A50"/>
<stop offset="0.45" stop-color="#F5E27B"/>
<stop offset="0.5" stop-color="#F6F2C0"/>
<stop offset="0.55" stop-color="#F5E27B"/>
<stop offset="0.8" stop-color="#CA9A50"/>
<stop offset="1" stop-color="#462523"/>
</radialGradient>
<radialGradient id="paint6_radial_61_903" cx="0" cy="0" r="1" gradientUnits="userSpaceOnUse" gradientTransform="translate(48.1798 118.384) scale(210.568 210.399)">
<stop stop-color="#462523"/>
<stop offset="0.2" stop-color="#CA9A50"/>
<stop offset="0.45" stop-color="#F5E27B"/>
<stop offset="0.5" stop-color="#F6F2C0"/>
<stop offset="0.55" stop-color="#F5E27B"/>
<stop offset="0.8" stop-color="#CA9A50"/>
<stop offset="1" stop-color="#462523"/>
</radialGradient>
<radialGradient id="paint7_radial_61_903" cx="0" cy="0" r="1" gradientUnits="userSpaceOnUse" gradientTransform="translate(-41.6045 47.7885) scale(386.746 386.434)">
<stop stop-color="#462523"/>
<stop offset="0.2" stop-color="#CA9A50"/>
<stop offset="0.45" stop-color="#F5E27B"/>
<stop offset="0.5" stop-color="#F6F2C0"/>
<stop offset="0.55" stop-color="#F5E27B"/>
<stop offset="0.8" stop-color="#CA9A50"/>
<stop offset="1" stop-color="#462523"/>
</radialGradient>
<radialGradient id="paint8_radial_61_903" cx="0" cy="0" r="1" gradientUnits="userSpaceOnUse" gradientTransform="translate(-41.9213 47.7426) scale(388.978 388.664)">
<stop stop-color="#462523"/>
<stop offset="0.2" stop-color="#CA9A50"/>
<stop offset="0.45" stop-color="#F5E27B"/>
<stop offset="0.5" stop-color="#F6F2C0"/>
<stop offset="0.55" stop-color="#F5E27B"/>
<stop offset="0.8" stop-color="#CA9A50"/>
<stop offset="1" stop-color="#462523"/>
</radialGradient>
<radialGradient id="paint9_radial_61_903" cx="0" cy="0" r="1" gradientUnits="userSpaceOnUse" gradientTransform="translate(-41.8519 47.802) scale(389.253 388.939)">
<stop stop-color="#462523"/>
<stop offset="0.2" stop-color="#CA9A50"/>
<stop offset="0.45" stop-color="#F5E27B"/>
<stop offset="0.5" stop-color="#F6F2C0"/>
<stop offset="0.55" stop-color="#F5E27B"/>
<stop offset="0.8" stop-color="#CA9A50"/>
<stop offset="1" stop-color="#462523"/>
</radialGradient>
<radialGradient id="paint10_radial_61_903" cx="0" cy="0" r="1" gradientUnits="userSpaceOnUse" gradientTransform="translate(-39.8184 47.7885) scale(386.364 386.052)">
<stop stop-color="#462523"/>
<stop offset="0.2" stop-color="#CA9A50"/>
<stop offset="0.45" stop-color="#F5E27B"/>
<stop offset="0.5" stop-color="#F6F2C0"/>
<stop offset="0.55" stop-color="#F5E27B"/>
<stop offset="0.8" stop-color="#CA9A50"/>
<stop offset="1" stop-color="#462523"/>
</radialGradient>
<radialGradient id="paint11_radial_61_903" cx="0" cy="0" r="1" gradientUnits="userSpaceOnUse" gradientTransform="translate(-42.608 47.7885) scale(390.538 390.223)">
<stop stop-color="#462523"/>
<stop offset="0.2" stop-color="#CA9A50"/>
<stop offset="0.45" stop-color="#F5E27B"/>
<stop offset="0.5" stop-color="#F6F2C0"/>
<stop offset="0.55" stop-color="#F5E27B"/>
<stop offset="0.8" stop-color="#CA9A50"/>
<stop offset="1" stop-color="#462523"/>
</radialGradient>
</defs>
</svg>
