<svg width="24" height="24" viewBox="0 0 24 24" fill="none" xmlns="http://www.w3.org/2000/svg">
<path d="M17.85 15.36L20.787 3.86026H24V2.05267H19.383L18.6907 4.76353L0 4.75015L1.9871 15.3599H17.85V15.36ZM18.2292 6.5708L16.4461 13.5523H3.48756L2.17783 6.55931L18.2292 6.5708Z" fill="white"/>
<path d="M15.3757 21.9473C16.9696 21.9473 18.2663 20.6506 18.2663 19.0567C18.2663 17.4628 16.9696 16.1661 15.3757 16.1661H4.4849C2.891 16.1661 1.59424 17.4628 1.59424 19.0567C1.59424 20.6506 2.89097 21.9473 4.4849 21.9473C6.07882 21.9473 7.37553 20.6506 7.37553 19.0567C7.37553 18.6739 7.30054 18.3083 7.16481 17.9737H12.6957C12.56 18.3083 12.485 18.6739 12.485 19.0567C12.485 20.6506 13.7818 21.9473 15.3757 21.9473ZM5.56793 19.0567C5.56793 19.6539 5.08209 20.1397 4.4849 20.1397C3.8877 20.1397 3.40183 19.6539 3.40183 19.0567C3.40183 18.4595 3.88767 17.9737 4.4849 17.9737C5.08209 17.9737 5.56793 18.4595 5.56793 19.0567ZM16.4587 19.0567C16.4587 19.6539 15.9729 20.1397 15.3757 20.1397C14.7785 20.1397 14.2926 19.6539 14.2926 19.0567C14.2926 18.4595 14.7785 17.9737 15.3757 17.9737C15.9729 17.9737 16.4587 18.4595 16.4587 19.0567Z" fill="white"/>
</svg>
